<svg xmlns="http://www.w3.org/2000/svg" xmlns:xlink="http://www.w3.org/1999/xlink" width="17" height="12" viewBox="0 0 17 12"><defs><path id="y21fa" d="M650.965 4275.008a.914.914 0 0 0-.53.272c-3.066 3.035-6.368 6.536-9.432 9.598l-4.512-3.67a.92.92 0 0 0-1.284.126.894.894 0 0 0 .128 1.269l5.156 4.195a.918.918 0 0 0 1.223-.066c3.254-3.221 6.793-7.003 10.01-10.188a.891.891 0 0 0 .184-1.04.913.913 0 0 0-.943-.496z"/></defs><g><g transform="translate(-635 -4275)"><use fill="#49a3af" xlink:href="#y21fa"/></g></g></svg>