<?xml version="1.0" encoding="UTF-8"?>
<svg width="19px" height="19px" viewBox="0 0 19 19" version="1.1" xmlns="http://www.w3.org/2000/svg" xmlns:xlink="http://www.w3.org/1999/xlink">
    <!-- Generator: Sketch 53.2 (72643) - https://sketchapp.com -->
    <title>logo_googleg_48dp</title>
    <desc>Created with Sketch.</desc>
    <g id="Google-Button" stroke="none" stroke-width="1" fill="none" fill-rule="evenodd">
        <g id="btn_google_signin_dark_pressed_web" transform="translate(-15.000000, -15.000000)">
            <g id="logo_googleg_48dp" transform="translate(15.000000, 15.000000)">
                <path d="M18.62,9.71590909 C18.62,9.04227273 18.5595455,8.39454545 18.4472727,7.77272727 L9.5,7.77272727 L9.5,11.4475 L14.6127273,11.4475 C14.3925,12.635 13.7231818,13.6411364 12.7170455,14.3147727 L12.7170455,16.6984091 L15.7872727,16.6984091 C17.5836364,15.0445455 18.62,12.6090909 18.62,9.71590909 L18.62,9.71590909 Z" id="Shape" fill="#4285F4"></path>
                <path d="M9.5,19 C12.065,19 14.2154545,18.1493182 15.7872727,16.6984091 L12.7170455,14.3147727 C11.8663636,14.8847727 10.7781818,15.2215909 9.5,15.2215909 C7.02568182,15.2215909 4.93136364,13.5504545 4.18431818,11.305 L1.01045455,11.305 L1.01045455,13.7663636 C2.57363636,16.8711364 5.78636364,19 9.5,19 L9.5,19 Z" id="Shape" fill="#34A853"></path>
                <path d="M4.18431818,11.305 C3.99431818,10.735 3.88636364,10.1261364 3.88636364,9.5 C3.88636364,8.87386364 3.99431818,8.265 4.18431818,7.695 L4.18431818,5.23363636 L1.01045455,5.23363636 C0.367045455,6.51613636 0,7.96704545 0,9.5 C0,11.0329545 0.367045455,12.4838636 1.01045455,13.7663636 L4.18431818,11.305 L4.18431818,11.305 Z" id="Shape" fill="#FBBC05"></path>
                <path d="M9.5,3.77840909 C10.8947727,3.77840909 12.1470455,4.25772727 13.1315909,5.19909091 L15.8563636,2.47431818 C14.2111364,0.941363636 12.0606818,0 9.5,0 C5.78636364,0 2.57363636,2.12886364 1.01045455,5.23363636 L4.18431818,7.695 C4.93136364,5.44954545 7.02568182,3.77840909 9.5,3.77840909 L9.5,3.77840909 Z" id="Shape" fill="#EA4335"></path>
                <polygon id="Shape" points="0 0 19 0 19 19 0 19"></polygon>
            </g>
        </g>
    </g>
</svg>