<?xml version="1.0" encoding="UTF-8"?>
<svg width="235px" height="334px" viewBox="0 0 235 334" version="1.1" xmlns="http://www.w3.org/2000/svg" xmlns:xlink="http://www.w3.org/1999/xlink">
    <!-- Generator: Sketch 53 (72520) - https://sketchapp.com -->
    <title>contract</title>
    <desc>Created with Sketch.</desc>
    <defs>
        <filter x="-14.3%" y="-11.7%" width="128.6%" height="123.4%" filterUnits="objectBoundingBox" id="filter-1">
            <feOffset dx="0" dy="2" in="SourceAlpha" result="shadowOffsetOuter1"></feOffset>
            <feGaussianBlur stdDeviation="9" in="shadowOffsetOuter1" result="shadowBlurOuter1"></feGaussianBlur>
            <feColorMatrix values="0 0 0 0 0   0 0 0 0 0   0 0 0 0 0  0 0 0 0.05 0" type="matrix" in="shadowBlurOuter1" result="shadowMatrixOuter1"></feColorMatrix>
            <feMerge>
                <feMergeNode in="shadowMatrixOuter1"></feMergeNode>
                <feMergeNode in="SourceGraphic"></feMergeNode>
            </feMerge>
        </filter>
        <polygon id="path-2" points="0.717800063 0.48911857 142.173246 0.48911857 142.173246 32.8891186 0.717800063 32.8891186"></polygon>
    </defs>
    <g id="Page-1" stroke="none" stroke-width="1" fill="none" fill-rule="evenodd">
        <g id="Contracts-Page_New_Header_Final" transform="translate(0.000000, -223.000000)">
            <g id="Header-Area" transform="translate(0.000000, 71.000000)">
                <g id="contracts">
                    <g id="contract" filter="url(#filter-1)" transform="translate(55.338680, 353.673467) rotate(-10.000000) translate(-55.338680, -353.673467) translate(-81.161320, 187.173467)">
                        <rect id="Rectangle-Copy-19" fill="#FCFCFC" x="0.550117768" y="0.425417173" width="272.189911" height="332.189781" rx="1.45799988"></rect>
                        <g id="obama-signature-copy-2" transform="translate(171.709902, 287.425614) rotate(-360.000000) translate(-171.709902, -287.425614) translate(100.531684, 270.775614)">
                            <mask id="mask-3" fill="white">
                                <use xlink:href="#path-2"></use>
                            </mask>
                            <g id="Clip-2"></g>
                            <path d="M83.8873129,12.0492298 C83.8948779,12.1024774 83.9025541,12.155725 83.9100078,12.2090802 C85.3575833,12.0247036 86.8050476,11.8404346 88.3300527,11.646269 C87.8768232,11.1663951 87.4109112,10.9238226 86.8700172,11.0786172 C85.8646575,11.3660467 84.8804352,11.7218914 83.8873129,12.0492298 L83.8873129,12.0492298 Z M117.777847,22.6162461 C118.499187,22.7678135 119.187598,22.8972214 119.866997,23.0610519 C120.21899,23.146033 120.386754,23.0080194 120.484097,22.7129523 C120.57966,22.4231562 120.712714,22.1335753 120.371846,21.8936921 C119.553385,21.317327 118.200705,21.6692991 117.777847,22.6162461 L117.777847,22.6162461 Z M34.4287778,21.2692427 C34.3720407,21.2258917 34.3153036,21.1823254 34.2585664,21.1389743 C34.0795663,21.1646838 33.8936688,21.1690942 33.7223449,21.2196525 C32.3431877,21.6271313 30.945563,21.9877091 29.5938843,22.4685512 C26.9137781,23.4221676 24.2796177,24.4947574 22.0061275,26.2105139 C21.3308444,26.7199699 20.7700368,27.3849735 20.2215779,28.030184 C20.0223305,28.2645811 20.0115393,28.6488245 19.9148637,28.9647603 C20.2490565,29.0266136 20.6019392,29.1875397 20.9142159,29.1326786 C22.0579697,28.931736 23.2302033,28.7713478 24.3152175,28.3914072 C27.0332598,27.4397271 29.455824,25.9396503 31.7648027,24.28252 C32.5306427,23.7328324 33.2062595,23.052016 33.857179,22.3722752 C34.1346347,22.0824791 34.2433253,21.6415458 34.4287778,21.2692427 L34.4287778,21.2692427 Z M92.1360016,30.0426212 C97.2740494,30.0959763 103.88882,25.4622505 104.065039,21.7694476 C102.04453,21.6424063 100.034366,21.738252 98.0371082,22.0408491 C96.0140401,22.3472111 94.0737415,22.9192734 92.2802919,23.8949419 C92.0813782,24.0030506 91.8064813,24.237125 91.81349,24.403107 C91.8926995,26.2763474 92.0200799,28.147759 92.1360016,30.0426212 L92.1360016,30.0426212 Z M104.387106,20.553143 C104.767133,16.9773773 103.215094,14.1093209 99.5163898,12.9053869 C97.3897486,12.2129528 95.1942442,12.1320594 92.9820524,12.229949 C92.8531145,12.2355427 92.6428533,12.4361625 92.6236072,12.5669687 C92.1321079,15.9036042 91.8267287,19.2560526 91.776889,22.6278637 C91.7757765,22.7057451 91.8132675,22.7843795 91.8435273,22.9057195 C93.7857171,21.9115488 95.7968815,21.2384775 97.9263039,21.0153753 C100.053279,20.7924883 102.195384,20.7042802 104.387106,20.553143 L104.387106,20.553143 Z M74.6976778,20.1722343 C74.9778035,20.1722343 75.1982996,20.1787961 75.4182394,20.1711586 C76.9824042,20.1167277 78.5244304,20.2587213 80.0473217,20.6174704 C81.1789493,20.8841388 82.0018602,21.5210663 82.5655603,22.4914638 C82.755129,22.8177264 82.8441285,23.1653957 82.4394036,23.3768802 C82.0443574,23.5833088 81.7910428,23.3511707 81.6016966,23.0069437 C81.1965267,22.2705131 80.568302,21.8379703 79.7193588,21.6301433 C78.0629684,21.2246008 76.3862193,21.1997519 74.6967878,21.2442863 C74.3536951,21.2533222 74.2854993,21.4417865 74.2792693,21.6834984 C74.2603569,22.3990603 74.2040648,23.1197856 74.2658081,23.8301841 C74.5074416,26.61014 75.8661289,28.6666812 78.5655926,29.7912279 C79.1740149,30.044665 79.8132532,30.2474362 80.4568303,30.4002945 C82.9579365,30.9939786 85.4910825,30.923412 88.0246734,30.6572815 C89.0507255,30.5494954 90.0701026,30.3822226 91.1374281,30.235711 C90.3189672,24.2227105 90.706671,18.2906034 91.5263556,12.3649505 C91.390854,12.3517193 91.3363419,12.3359063 91.2849447,12.3427909 C88.2221409,12.750162 85.1581134,13.1495729 82.0983133,13.5769523 C81.5204846,13.6576305 80.881135,13.7278743 80.4046544,14.0131525 C78.8548407,14.9412745 77.4806897,16.0917458 76.3304834,17.4725264 C75.6570916,18.2810296 75.0771491,19.1438561 74.6976778,20.1722343 L74.6976778,20.1722343 Z M0.717800063,19.959459 C0.912375044,18.8884827 1.034193,17.7993269 1.31465242,16.7497572 C2.3759705,12.7778078 4.74012884,9.63254102 8.0911795,7.18358097 C12.4939808,3.9658114 17.4679359,2.26586781 23.002921,2.21165205 C24.9823794,2.19218171 26.8657184,2.6372027 28.5436912,3.70107931 C29.8357403,4.52012446 30.7658954,5.59809286 30.9144132,7.15582766 C31.0233263,8.29962948 30.6020253,9.30412693 29.9653457,10.2347231 C28.8613079,11.8481797 27.3602214,13.0757793 25.726192,14.1429906 C24.3928695,15.0136698 22.9911286,15.786567 21.6189801,16.6015245 C21.4650111,16.6930673 21.3057021,16.775897 21.1706455,16.9272493 C21.9467204,16.8438818 22.7210154,16.7379244 23.4992041,16.6816648 C25.9729429,16.5028819 28.4254332,16.566026 30.8003827,17.3750671 C32.256747,17.8710767 33.5380049,18.6265474 34.6084454,19.7166713 C34.7581869,19.8690994 35.0413163,19.9638694 35.2665961,19.9713993 C36.708053,20.0199138 38.1556285,19.9745189 39.5911892,20.0834883 C40.7063519,20.1681466 41.0839319,20.8264807 40.7616428,21.8629268 C40.6608509,22.1866077 40.5062144,22.4952288 40.3672641,22.8071845 C40.2388824,23.095367 40.0985971,23.3783862 40.0619961,23.7453107 C40.4865233,23.447877 40.9088256,23.1472162 41.3368015,22.8544081 C41.5478414,22.7099404 41.7547651,22.5464325 41.9893898,22.450049 C42.53351,22.226409 42.9657134,22.504695 42.9652684,23.0796617 C42.9649347,23.4719729 42.9040813,23.8641766 42.876269,24.2568105 C42.844118,24.7106523 43.1086687,24.7864898 43.4752351,24.6547154 C43.751022,24.555535 43.9994417,24.3867562 44.2733374,24.2811215 C44.9740966,24.0107958 45.6651771,23.6960432 46.3906336,23.5106984 C48.5340734,22.9631624 50.4500084,23.5939584 52.226993,24.7209791 C52.5679721,24.9371967 52.7992593,25.3147707 53.1433533,25.6848147 C53.2804124,25.4015805 53.429709,25.1131828 53.5609831,24.8172551 C53.7870416,24.308337 53.9778341,23.7833908 54.2289237,23.2867357 C54.4272812,22.8941018 54.7746014,22.6232382 55.2537521,22.6826173 C55.7492563,22.7438252 55.9643012,23.1154828 56.0263783,23.5513603 C56.1124852,24.15365 56.1599887,24.7612106 56.2246245,25.3664048 C56.2447606,25.5555145 56.267233,25.744409 56.4141932,25.9760093 C56.6612779,25.6543722 56.950971,25.3552174 57.1479935,25.0071178 C57.9202859,23.6418274 58.6639873,22.2613695 59.4160324,20.8854296 C59.4936844,20.7432208 59.518048,20.5473342 59.6343035,20.4570821 C59.8401147,20.2973393 60.1063342,20.0855321 60.331169,20.1018829 C60.6887241,20.1280226 60.7314439,20.465903 60.6837179,20.7751694 C60.6125184,21.235573 60.5264114,21.6942555 60.4716768,22.1563803 C60.442752,22.4014269 60.4665593,22.6523899 60.4665593,22.9996289 C61.5541322,22.7161795 62.6045479,22.4643559 63.6416136,22.1681055 C66.7373472,21.2836572 69.8671231,20.5692786 73.091572,20.287873 C73.2644534,20.2727055 73.5178793,20.1287756 73.5726139,19.986782 C74.5339189,17.4926421 76.3225847,15.6332784 78.4495596,14.0455313 C80.7707757,12.3125635 83.3276178,10.9974011 86.1387757,10.165555 C87.4709858,9.7714151 88.4886942,10.0735819 89.325845,11.1461717 C89.5401111,11.4208003 89.740916,11.4884625 90.0677664,11.4337089 C90.5939754,11.3456083 91.1271932,11.2958029 91.6712022,11.2281408 C92.0235286,9.19773927 92.3657314,7.18734595 92.7232866,5.17953433 C92.9556863,3.87416095 93.1914235,2.56857244 93.4702142,1.27191231 C93.5305113,0.991367296 93.7816009,0.749117536 93.9446923,0.48911857 L94.1671909,0.48911857 C94.5281948,0.720826378 94.6201979,1.00406067 94.5387635,1.44198197 C93.9593773,4.56100141 93.4160358,7.6861524 92.8627932,10.8096898 C92.8472183,10.8969299 92.8487757,10.9870743 92.8380958,11.1326178 C93.2519431,11.1326178 93.6521068,11.1368131 94.0522704,11.1319724 C95.8396012,11.1101355 97.605461,11.2585834 99.329046,11.7458797 C103.48365,12.9204468 105.629315,15.7585986 105.54254,19.9550486 C105.513504,21.3622916 105.09632,22.6689558 104.474325,23.925492 C104.403904,24.0680235 104.332371,24.2099096 104.210664,24.4537729 C105.145937,24.36976 105.997661,24.2833805 106.851166,24.2185152 C109.251258,24.0360749 111.526639,23.3232023 113.833281,22.7293031 C114.612138,22.5288985 115.439053,22.4900654 116.247947,22.4199291 C116.518394,22.3964786 116.662128,22.3435537 116.792178,22.0943119 C117.574928,20.5936972 119.43179,20.0984406 120.918859,20.9727772 C121.567776,21.3543314 121.826097,22.0253589 121.614056,22.795029 C121.567442,22.9643456 121.501583,23.128714 121.444401,23.2957717 C122.003762,23.2957717 122.536868,23.3210509 123.066749,23.2915764 C126.118984,23.1213992 129.177338,23.0070513 132.219672,22.7317773 C133.851698,22.5841899 135.456136,22.1517547 137.073032,21.8486198 C138.302003,21.6182029 139.503162,21.619924 140.641242,22.2225364 C141.716577,22.7919094 142.315655,23.9432412 142.144219,25.1093102 C142.094602,25.447083 141.919051,25.6545873 141.570284,25.6342564 C141.217402,25.6139255 141.049304,25.3749029 141.07211,25.0413254 C141.178687,23.4773515 140.082437,22.7674908 138.610609,22.7923397 C137.514358,22.8109495 136.410209,23.0591156 135.332426,23.3002897 C132.899182,23.8448138 130.426333,24.0150986 127.945697,24.1270799 C124.98324,24.2607906 122.019337,24.3642739 119.056769,24.4964786 C118.328086,24.5290726 117.7131,24.3953619 117.237621,23.7968372 C117.10401,23.6285962 116.782388,23.494025 116.563116,23.5133877 C115.537398,23.6042852 114.466624,23.6054684 113.504429,23.9108623 C110.340277,24.9151447 107.087125,25.3292928 103.789919,25.5509965 C103.613923,25.5627217 103.388866,25.6540495 103.284069,25.7824892 C100.855386,28.7575787 97.5574013,30.227428 93.8114157,30.9290057 C93.4115858,31.0037675 93.0083072,31.0608877 92.6071423,31.1286574 C92.5544102,31.1375858 92.5041255,31.1608211 92.4033336,31.1934151 C92.4638533,31.5195702 92.5282666,31.8466934 92.5843362,32.1753226 C92.6424083,32.5162149 92.5570801,32.7996644 92.1660389,32.8724899 C91.7821177,32.943917 91.575194,32.7347991 91.5049958,32.3851935 C91.434575,32.0352653 91.3711629,31.6839386 91.2979609,31.2988346 C90.1395222,31.4482506 89.012122,31.6223004 87.8782694,31.7343893 C84.8338217,32.0353728 81.808509,32.0430104 78.8667444,31.0512063 C75.3263475,29.8577067 73.2605597,27.1471341 73.1407442,23.5174754 C73.1177156,22.8227823 73.1374067,22.1267983 73.1374067,21.3342156 C71.939697,21.501596 70.7008251,21.5882982 69.5064529,21.8590542 C66.7870756,22.4755433 64.089837,23.1831449 61.3829196,23.8514832 C61.1319412,23.9133365 60.8780704,23.9660462 60.6234208,24.0116563 C59.9323403,24.1356856 59.7773701,24.0690992 59.3567366,23.4564827 C59.0087488,24.0461866 58.6991421,24.6339542 58.327792,25.1826736 C57.9541057,25.7351579 57.5409259,26.2662357 57.1032713,26.7730024 C56.8188069,27.1023846 56.416752,27.2821357 55.9568475,27.1532657 C55.4840381,27.0208458 55.3093767,26.6246621 55.2402909,26.2105139 C55.1377191,25.5960687 55.0911056,24.9728027 54.9373591,24.3361979 C54.7773827,24.7228078 54.6350948,25.1174856 54.4519785,25.4936612 C54.2955621,25.8150832 54.1363643,26.1515651 53.9012946,26.4174804 C53.2916486,27.1069026 52.5008888,27.012778 52.0833702,26.2085777 C51.6085583,25.2941171 50.6812956,25.0103449 49.8084338,24.7125886 C48.0728339,24.120303 46.3845149,24.3088748 44.7857515,25.2107496 C44.483376,25.3813571 44.1646468,25.535076 43.8361277,25.6506072 C42.6998276,26.0501257 41.8293021,25.4758044 41.7733437,24.3072613 C41.7682262,24.2003358 41.7633313,24.0933027 41.7540976,23.8953721 C41.5182491,24.0542544 41.3316841,24.1836623 41.1411141,24.3072613 C40.9103831,24.4568924 40.6861045,24.6190019 40.4420236,24.7448599 C39.9746654,24.9857112 39.4721524,25.2141919 38.997118,24.8077889 C38.5241974,24.4032145 38.6812813,23.8912844 38.8820863,23.4158209 C39.0917912,22.9191658 39.3435483,22.4392919 39.5614856,21.9457564 C39.6603862,21.7219013 39.7221296,21.4827711 39.8195839,21.1944809 C38.3434173,20.8744574 36.9279928,20.9553507 35.4706273,21.0466785 C35.4680685,22.509213 34.5305709,23.4661641 33.483604,24.3024206 C30.7699004,26.4700826 27.8148972,28.2724337 24.4969988,29.4527021 C23.1947148,29.9161177 21.8433699,30.2537829 20.4275003,30.1975233 C19.0371069,30.1422318 18.4619481,29.2959712 18.9774773,28.05073 C19.4045633,27.0192323 20.1808607,26.2510682 21.0524988,25.569929 C23.0487557,24.0101503 25.3364858,22.9424012 27.7029804,22.0481639 C29.4749589,21.3786424 31.3061219,20.8548795 33.1106964,20.2652831 C33.2114882,20.2323664 33.3093876,20.1908441 33.4639129,20.1323255 C32.4548819,19.1752668 31.2759734,18.605356 29.988708,18.2307939 C27.4685782,17.4974828 24.9001662,17.5527743 22.3281942,17.8626862 C20.0629365,18.1357012 17.8480746,18.6430058 15.684165,19.3489939 C15.3288348,19.4649553 15.0012057,19.486362 14.844678,19.1002899 C14.6755791,18.6834525 14.9545923,18.4885339 15.3191561,18.3394406 C18.8226183,16.9055199 22.2430885,15.3077687 25.3139022,13.1161184 C26.4826871,12.2819057 27.5080717,11.2551411 28.5631598,10.2802257 C28.8767715,9.99042954 29.0976013,9.59360034 29.3122012,9.21957617 C30.2304527,7.61945842 29.9324159,6.12379205 28.4684867,4.95557163 C27.3345228,4.05068487 25.997529,3.59092667 24.5650834,3.39396427 C21.9070044,3.02843821 19.3156751,3.43591694 16.7721829,4.15158641 C12.5019907,5.3532614 8.76023264,7.41087836 5.8203593,10.6953419 C3.39901883,13.4003208 2.08816863,16.5577431 1.85276516,20.1258712 C1.64139154,23.3315928 3.15727416,25.701058 5.75249724,27.525999 C8.13056174,29.1981893 10.8329179,30.1767621 13.6636557,30.8036856 C15.5908269,31.2304195 17.559939,31.4794462 19.5102501,31.8076452 C19.6014745,31.8229202 19.6939226,31.832494 19.7848133,31.8492751 C20.1181161,31.9110208 20.3371659,32.0831343 20.2960037,32.4345686 C20.254619,32.7875089 19.9997469,32.9238012 19.6617716,32.881741 C18.523024,32.7403928 17.3798264,32.6205588 16.2502013,32.4271462 C12.8053675,31.8372272 9.45809934,30.9460019 6.41454168,29.2109902 C4.17909875,27.9365973 2.30510472,26.3114155 1.36082087,23.8984917 C1.05633161,23.1205386 0.927171198,22.2783657 0.717800063,21.4654521 L0.717800063,19.959459 Z" id="Fill-1" fill="#32444B" mask="url(#mask-3)"></path>
                        </g>
                        <rect id="Rectangle-Copy-21" fill="#ECECEC" x="31.1738093" y="28.1880681" width="212.243323" height="6.48175182" rx="2"></rect>
                        <rect id="Rectangle-Copy-22" fill="#ECECEC" x="30.9093029" y="43.7706959" width="212.243323" height="6.48175182" rx="2"></rect>
                        <rect id="Rectangle-Copy-23" fill="#ECECEC" x="30.6447964" y="59.3533236" width="212.243323" height="6.48175182" rx="2"></rect>
                        <rect id="Rectangle-Copy-24" fill="#ECECEC" x="31.1824953" y="74.8231906" width="212.243323" height="6.48175182" rx="2"></rect>
                        <rect id="Rectangle-Copy-25" fill="#ECECEC" x="30.9179888" y="90.4058184" width="212.243323" height="6.48175182" rx="2"></rect>
                        <rect id="Rectangle-Copy-21" fill="#ECECEC" x="30.6534824" y="105.988446" width="212.243323" height="6.48175182" rx="2"></rect>
                        <rect id="Rectangle-Copy-22" fill="#ECECEC" x="31.3039238" y="122.260647" width="212.243323" height="6.48175182" rx="2"></rect>
                        <rect id="Rectangle-Copy-23" fill="#ECECEC" x="31.8416226" y="137.730514" width="212.243323" height="6.48175182" rx="2"></rect>
                        <rect id="Rectangle-Copy-24" fill="#ECECEC" x="30.7749109" y="153.425903" width="212.243323" height="6.48175182" rx="2"></rect>
                        <rect id="Rectangle-Copy-25" fill="#ECECEC" x="31.3126097" y="168.89577" width="212.243323" height="6.48175182" rx="2"></rect>
                        <rect id="Rectangle-Copy-21" fill="#ECECEC" x="31.8503086" y="184.365637" width="212.243323" height="6.48175182" rx="2"></rect>
                        <rect id="Rectangle-Copy-22" fill="#ECECEC" x="30.7835968" y="200.061025" width="212.243323" height="6.48175182" rx="2"></rect>
                        <rect id="Rectangle-Copy-23" fill="#ECECEC" x="31.3212957" y="215.530892" width="212.243323" height="6.48175182" rx="2"></rect>
                        <rect id="Rectangle-Copy-24" fill="#ECECEC" x="31.0567892" y="231.11352" width="212.243323" height="6.48175182" rx="2"></rect>
                        <rect id="Rectangle-Copy-25" fill="#ECECEC" x="31.7072307" y="247.385721" width="212.243323" height="6.48175182" rx="2"></rect>
                    </g>
                </g>
            </g>
        </g>
    </g>
</svg>