<svg xmlns="http://www.w3.org/2000/svg" width="18" height="18" viewBox="0 0 18 18">
    <path fill="#49A3AF" fill-rule="nonzero" d="M17.725 16.396l-4.347-4.347c2.273-2.929 2.067-7.172-.622-9.86A7.424 7.424 0 0 0 7.472 0 7.423 7.423 0 0 0 2.19 2.189 7.423 7.423 0 0 0 0 7.473c0 1.996.777 3.872 2.189 5.284a7.424 7.424 0 0 0 5.283 2.188c1.68 0 3.273-.552 4.578-1.567l4.346 4.347a.936.936 0 0 0 1.329 0 .94.94 0 0 0 0-1.329zM3.517 11.428A5.557 5.557 0 0 1 1.88 7.472c0-1.494.581-2.898 1.638-3.955A5.556 5.556 0 0 1 7.472 1.88c1.495 0 2.9.581 3.956 1.638a5.6 5.6 0 0 1 0 7.91 5.558 5.558 0 0 1-3.956 1.64 5.556 5.556 0 0 1-3.955-1.64z"/>
</svg>
