<?xml version="1.0" encoding="UTF-8"?>
<svg width="263px" height="423px" viewBox="0 0 263 423" version="1.1" xmlns="http://www.w3.org/2000/svg" xmlns:xlink="http://www.w3.org/1999/xlink">
    <!-- Generator: Sketch 53 (72520) - https://sketchapp.com -->
    <title>contract</title>
    <desc>Created with Sketch.</desc>
    <defs>
        <filter x="-12.6%" y="-10.3%" width="125.2%" height="120.7%" filterUnits="objectBoundingBox" id="filter-1">
            <feOffset dx="0" dy="2" in="SourceAlpha" result="shadowOffsetOuter1"></feOffset>
            <feGaussianBlur stdDeviation="10" in="shadowOffsetOuter1" result="shadowBlurOuter1"></feGaussianBlur>
            <feColorMatrix values="0 0 0 0 0   0 0 0 0 0   0 0 0 0 0  0 0 0 0.05 0" type="matrix" in="shadowBlurOuter1" result="shadowMatrixOuter1"></feColorMatrix>
            <feMerge>
                <feMergeNode in="shadowMatrixOuter1"></feMergeNode>
                <feMergeNode in="SourceGraphic"></feMergeNode>
            </feMerge>
        </filter>
        <polygon id="path-2" points="0.897524658 0.616906305 177.770942 0.616906305 177.770942 41.4817712 0.897524658 41.4817712"></polygon>
    </defs>
    <g id="Page-1" stroke="none" stroke-width="1" fill="none" fill-rule="evenodd">
        <g id="Contracts-Page_New_Header_Final" transform="translate(-957.000000, -134.000000)">
            <g id="Header-Area" transform="translate(0.000000, 71.000000)">
                <g id="contracts">
                    <g id="contract" filter="url(#filter-1)" transform="translate(1179.028543, 313.447027) rotate(10.000000) translate(-1179.028543, -313.447027) translate(1008.528543, 105.447027)">
                        <rect id="Rectangle-Copy-19" fill="#FCFCFC" x="0.879960662" y="0.385034409" width="340" height="415" rx="1.61999991"></rect>
                        <g id="obama-signature-copy-2" transform="translate(216.303385, 361.836204) rotate(-360.000000) translate(-216.303385, -361.836204) translate(127.303385, 340.836204)">
                            <mask id="mask-3" fill="white">
                                <use xlink:href="#path-2"></use>
                            </mask>
                            <g id="Clip-2"></g>
                            <path d="M104.89123,15.1972268 C104.90069,15.2643859 104.910288,15.3315451 104.919608,15.3988399 C106.729631,15.1662928 108.539515,14.9338815 110.446355,14.688988 C109.879644,14.0837415 109.297076,13.7777943 108.620752,13.9730307 C107.363668,14.3355544 106.133013,14.7843675 104.89123,15.1972268 L104.89123,15.1972268 Z M147.267362,28.524995 C148.169313,28.7161612 149.03009,28.8793783 149.879599,29.0860114 C150.319725,29.1931947 150.529494,29.0191236 150.65121,28.6469669 C150.7707,28.2814583 150.937069,27.916221 150.510854,27.6136657 C149.487464,26.8867187 147.796097,27.3306475 147.267362,28.524995 L147.267362,28.524995 Z M43.0491423,26.8260719 C42.9781992,26.7713949 42.907256,26.7164465 42.8363129,26.6617694 C42.6124943,26.6941958 42.3800513,26.6997584 42.1658309,26.7635257 C40.4413568,27.2774629 38.6937913,27.7322457 37.0036759,28.3387132 C33.6525179,29.5414726 30.3588098,30.8942886 27.5160774,33.0583059 C26.6717152,33.700863 25.9704912,34.5396062 25.2847077,35.3533852 C25.0355722,35.6490212 25.0220791,36.1336525 24.9011976,36.5321301 C25.3190665,36.6101433 25.7603048,36.8131132 26.1507702,36.7439189 C27.5808999,36.4904779 29.0466404,36.2881864 30.4033231,35.8089821 C33.8019157,34.6086648 36.8310477,32.7166761 39.7181543,30.6266017 C40.6757473,29.9333022 41.5205268,29.0746147 42.3344251,28.217284 C42.6813509,27.8517754 42.8172556,27.2956433 43.0491423,26.8260719 L43.0491423,26.8260719 Z M115.205247,37.8915942 C121.629772,37.9588891 129.900766,32.1145501 130.121106,27.456961 C127.594697,27.2967287 125.081224,27.4176152 122.583887,27.7992691 C120.054278,28.1856717 117.628163,28.9071917 115.385665,30.1377645 C115.136947,30.2741179 114.79322,30.5693469 114.801984,30.7786935 C114.901026,33.141339 115.0603,35.501678 115.205247,37.8915942 L115.205247,37.8915942 Z M130.523813,25.922883 C130.998993,21.4129083 129.058351,17.7955399 124.433555,16.2770646 C121.77444,15.4037242 119.02922,15.3016966 116.263134,15.4251609 C116.101912,15.432216 115.839005,15.68525 115.81494,15.8502308 C115.200378,20.0585999 114.818537,24.2869132 114.756219,28.539648 C114.754827,28.6378767 114.801706,28.7370552 114.839542,28.8900966 C117.268022,27.6361877 119.782747,26.7872689 122.44534,26.5058788 C125.104872,26.2247601 127.783322,26.1135065 130.523813,25.922883 L130.523813,25.922883 Z M93.4006713,25.4424577 C93.7509355,25.4424577 94.02664,25.4507338 94.3016489,25.4411009 C96.2574532,25.3724493 98.1855758,25.5515404 100.089773,26.0040167 C101.50474,26.3403552 102.533693,27.1436872 103.238534,28.367612 C103.475568,28.7791144 103.586851,29.2176162 103.08079,29.4843534 C102.586831,29.7447138 102.270091,29.4519271 102.033336,29.0177669 C101.526718,28.0889354 100.741197,27.543386 99.6796935,27.2812618 C97.6085718,26.7697668 95.5119941,26.7384258 93.3995585,26.7945953 C92.9705613,26.805992 92.8852904,27.0436947 92.8775006,27.3485566 C92.8538529,28.2510671 92.7834662,29.16009 92.860669,30.0560881 C93.1628032,33.5623387 94.8616822,36.1561745 98.2370444,37.5745216 C98.997805,37.8941721 99.7970974,38.1499196 100.601815,38.3427138 C103.729154,39.0915045 106.896556,39.0025016 110.064514,38.6668415 C111.347471,38.5308951 112.622083,38.3199204 113.956648,38.135131 C112.933259,30.5511664 113.418037,23.0692295 114.442956,15.5954331 C114.273527,15.578745 114.205366,15.5588008 114.1411,15.567484 C110.311424,16.0812855 106.480217,16.585047 102.654297,17.124084 C101.93179,17.2258403 101.132358,17.3144361 100.536575,17.6742463 C98.5987151,18.8448508 96.8805007,20.2958956 95.4423029,22.0374206 C94.6003055,23.0571544 93.8751555,24.1454041 93.4006713,25.4424577 L93.4006713,25.4424577 Z M0.897524658,25.1740924 C1.14081782,23.8233115 1.29313686,22.4496015 1.64381842,21.1258199 C2.97087201,16.1161539 5.92697429,12.1491508 10.1170695,9.06037239 C15.6222553,5.00192428 21.8416018,2.85785129 28.7624506,2.78947106 C31.2375307,2.76491387 33.5924249,3.3262016 35.6905328,4.66802796 C37.3060883,5.70105787 38.4691381,7.06065766 38.6548422,9.02536822 C38.7910251,10.4680011 38.2642377,11.7349349 37.4681447,12.9086598 C36.0876751,14.9436501 34.2107428,16.4919739 32.1675811,17.8380061 C30.5004178,18.9361601 28.7477055,19.9109854 27.031995,20.9388597 C26.8394748,21.0543191 26.6402777,21.1587889 26.4714052,21.3496838 C27.4417958,21.2445356 28.4099607,21.1108956 29.3829942,21.0399376 C32.4761141,20.8144456 35.542665,20.8940869 38.5122604,21.914499 C40.3332729,22.5400967 41.9353353,23.4929427 43.2737955,24.8678738 C43.4610297,25.0601253 43.8150497,25.1796551 44.0967356,25.1891523 C45.8991081,25.2503418 47.7091313,25.1930869 49.5041312,25.3305257 C50.8985112,25.437302 51.3706307,26.2676334 50.967646,27.5748626 C50.8416176,27.9831088 50.6482629,28.3723606 50.4745218,28.7658183 C50.3139956,29.1292918 50.1385852,29.4862529 50.09282,29.9490405 C50.6236414,29.5738989 51.1516808,29.1946871 51.6868144,28.8253796 C51.950695,28.643168 52.2094287,28.4369419 52.5027994,28.3153771 C53.1831578,28.0333086 53.7235774,28.3843 53.723021,29.1094832 C53.7226037,29.6042902 53.6465137,30.0989614 53.6117377,30.5941754 C53.5715366,31.1665885 53.9023262,31.2622394 54.3606744,31.0960375 C54.7055136,30.970945 55.0161332,30.7580709 55.3586076,30.624838 C56.2348246,30.2838865 57.0989396,29.8869013 58.0060377,29.6531332 C60.6861574,28.9625471 63.0818091,29.7581457 65.3037196,31.1796133 C65.7300739,31.4523202 66.0192714,31.9285396 66.4495205,32.3952618 C66.6208968,32.0380294 66.8075746,31.6742846 66.9717175,31.3010425 C67.2543771,30.6591638 67.4929407,29.9970695 67.8068988,29.3706577 C68.0549215,28.8754437 68.4892047,28.5338139 69.0883262,28.6087066 C69.7078961,28.6859057 69.9767844,29.154663 70.0544046,29.7044184 C70.1620712,30.464063 70.2214686,31.2303558 70.3022881,31.9936637 C70.327466,32.2321804 70.355565,32.4704258 70.5393216,32.7625342 C70.8482719,32.3568658 71.2104991,31.9795535 71.4568526,31.540509 C72.4225136,29.8185211 73.3524248,28.077403 74.2927689,26.3419833 C74.3898636,26.1626209 74.4203274,25.9155566 74.5656912,25.8017252 C74.8230339,25.6002477 75.1559101,25.3331036 75.4370396,25.3537262 C75.8841204,25.3866952 75.9375363,25.8128506 75.8778607,26.2029164 C75.788834,26.7836056 75.6811674,27.3621241 75.6127282,27.9449842 C75.5765611,28.2540519 75.6063294,28.5705819 75.6063294,29.008541 C76.9662115,28.6510372 78.2796329,28.3334219 79.5763618,27.9597727 C83.447213,26.8442524 87.36063,25.9432343 91.3924247,25.5883083 C91.6085925,25.5691782 91.9254718,25.3876449 91.993911,25.2085538 C93.19591,22.0627919 95.4324265,19.7176484 98.0919587,17.7150845 C100.994367,15.5293593 104.191397,13.870596 107.70642,12.8214208 C109.372192,12.3243073 110.644717,12.7054186 111.691476,14.0582346 C111.959391,14.404613 112.210473,14.4899527 112.619161,14.4208941 C113.277124,14.3097762 113.94385,14.2469586 114.62407,14.161619 C115.064612,11.6007522 115.492497,9.06512102 115.939578,6.532746 C116.230166,4.88632913 116.524928,3.23964091 116.873523,1.60421373 C116.948917,1.25037317 117.262875,0.944832928 117.466802,0.616906305 L117.74501,0.616906305 C118.196403,0.909150387 118.311442,1.26638282 118.209618,1.818716 C117.485164,5.7526144 116.805779,9.69424627 116.114014,13.633843 C116.09454,13.7438755 116.096487,13.8575712 116.083133,14.0411396 C116.6006,14.0411396 117.100958,14.0464309 117.601316,14.0403255 C119.836163,14.0127835 122.044163,14.2000151 124.199304,14.8146231 C129.394148,16.2960591 132.07705,19.8757099 131.968549,25.1685297 C131.932243,26.9434309 131.410602,28.5914758 130.632871,30.1762962 C130.544818,30.3560657 130.455374,30.5350211 130.303194,30.8425964 C131.472642,30.7366342 132.537624,30.6276871 133.604831,30.5458751 C136.605864,30.3157702 139.450961,29.4166515 142.335146,28.6675895 C143.309014,28.4148269 144.342976,28.3658482 145.354402,28.2773881 C145.692564,28.2478109 145.872287,28.1810588 146.034899,27.8666996 C147.013636,25.9740325 149.335424,25.3493846 151.194829,26.4521515 C152.006223,26.9333909 152.329223,27.7797319 152.064091,28.750487 C152.005806,28.9640395 151.923456,29.171351 151.851957,29.3820544 C152.551372,29.3820544 153.217959,29.413938 153.880513,29.3767631 C157.696974,29.1621251 161.521086,29.0179025 165.325167,28.6707101 C167.365825,28.4845639 169.371985,27.9391501 171.393725,27.5568178 C172.930409,27.2662018 174.432316,27.2683726 175.855351,28.0284243 C177.199932,28.7465524 177.949008,30.1986826 177.734649,31.6694003 C177.672608,32.09542 177.453102,32.3571371 177.01701,32.3314946 C176.575772,32.305852 176.365585,32.004382 176.394102,31.5836536 C176.527364,29.6110739 175.156631,28.7157542 173.316283,28.7470951 C171.945551,28.7705669 170.564942,29.0835693 169.217301,29.3877528 C166.174815,30.0745399 163.082808,30.2893135 159.981064,30.4305513 C156.27686,30.5991954 152.570847,30.7297148 148.866503,30.8964594 C147.955371,30.937569 147.186404,30.7689249 146.591872,30.0140288 C146.424808,29.801833 146.022658,29.6321035 145.748484,29.6565251 C144.465944,29.7711705 143.127066,29.7726629 141.923954,30.1578444 C137.967554,31.4245068 133.899871,31.9468558 129.777102,32.2264821 C129.557039,32.2412706 129.275631,32.3564588 129.144595,32.5184548 C126.107813,36.27082 121.98407,38.124684 117.300155,39.0095567 C116.800215,39.1038509 116.295962,39.1758944 115.794353,39.2613697 C115.728417,39.2726307 115.665542,39.3019365 115.539514,39.343046 C115.615187,39.7544128 115.695728,40.1670007 115.765836,40.581488 C115.838449,41.0114423 115.731756,41.3689461 115.242805,41.4607981 C114.762756,41.5508863 114.504023,41.287134 114.416248,40.8461901 C114.328195,40.4048391 114.248906,39.9617243 114.157375,39.4760076 C112.708884,39.6644603 111.299202,39.8839825 109.881453,40.0253559 C106.074729,40.4049748 102.29193,40.4146077 98.6135993,39.1636836 C94.1867488,37.6583688 91.6037239,34.2396286 91.4539087,29.6616807 C91.4251142,28.7854912 91.4497356,27.9076735 91.4497356,26.9080197 C89.9521403,27.1191301 88.4030765,27.2284842 86.9096544,27.5699783 C83.5093925,28.3475321 80.1368124,29.2400026 76.7521302,30.0829518 C76.4383113,30.1609649 76.1208756,30.2274457 75.8024662,30.2849719 C74.9383512,30.4414053 74.7445792,30.3574224 74.2186264,29.5847529 C73.7835086,30.3285236 73.3963817,31.0698522 72.9320521,31.7619307 C72.4648013,32.4587578 71.9481684,33.1285855 71.4009327,33.7677508 C71.0452434,34.1831878 70.542521,34.4099008 69.9674645,34.2473621 C69.3762718,34.0803461 69.1578783,33.5806548 69.0714946,33.0583059 C68.9432406,32.2833299 68.884956,31.4972286 68.692714,30.6943036 C68.4926823,31.1819198 68.3147681,31.6797116 68.0858026,32.1541673 C67.8902222,32.5595643 67.6911642,32.9839559 67.3972371,33.3193447 C66.6349463,34.1888861 65.6461941,34.0701705 65.1241362,33.0558637 C64.5304397,31.90249 63.3710066,31.5445792 62.2795954,31.1690306 C60.1094316,30.4220037 57.998387,30.6598421 55.9993213,31.7973418 C55.6212362,32.0125225 55.2227028,32.2064022 54.8119283,32.3521172 C53.3911185,32.8560143 52.3026285,32.1316452 52.2326591,30.657807 C52.2262603,30.522946 52.2201397,30.3879493 52.2085941,30.1383072 C51.9136933,30.3386993 51.6804156,30.5019164 51.4421302,30.657807 C51.1536282,30.846531 50.8731943,31.0509933 50.5679998,31.2097332 C49.9836232,31.5135096 49.3552898,31.8016834 48.7613151,31.2891031 C48.1699833,30.7788292 48.3663984,30.1331515 48.6174814,29.5334678 C48.8796927,28.907056 49.1944854,28.3018096 49.4669904,27.6793324 C49.590654,27.3969926 49.6678568,27.0953869 49.789712,26.7317778 C47.9439391,26.3281445 46.174117,26.4301721 44.3518526,26.5453602 C44.3486532,28.3899984 43.1764226,29.5969637 41.8673134,30.6517016 C38.4741459,33.3856898 34.7792615,35.6589254 30.6306193,37.1475522 C29.0022661,37.7320404 27.312568,38.1579244 25.5421895,38.0869663 C23.8036659,38.0172294 23.0844974,36.9498736 23.729106,35.3792991 C24.2631269,34.078311 25.2337956,33.1094554 26.3236766,32.2503609 C28.8197615,30.2830725 31.6802992,28.9363618 34.6393227,27.808495 C36.8549736,26.9640535 39.1446279,26.3034516 41.4010363,25.5598166 C41.5270647,25.5183 41.6494763,25.4659294 41.842692,25.3921222 C40.5810173,24.1850212 39.1069307,23.4662147 37.4973566,22.9937941 C34.3462303,22.0688973 31.1347328,22.1386342 27.9187839,22.5295141 C25.0863452,22.8738574 22.3169207,23.513701 19.6112059,24.4041364 C19.1669072,24.5503941 18.7572455,24.5773935 18.561526,24.0904557 C18.3500877,23.5647148 18.6989609,23.3188716 19.1548052,23.130826 C23.5354731,21.3222774 27.8123692,19.3070957 31.6520611,16.542852 C33.1134893,15.4906919 34.3956122,14.1956735 35.714876,12.9660504 C36.1070106,12.6005418 36.3831323,12.1000365 36.6514642,11.6282943 C37.7996299,9.61012774 37.4269699,7.72370169 35.5964984,6.25027052 C34.1786098,5.10897191 32.5068561,4.52909669 30.7157511,4.28067566 C27.3921356,3.8196518 24.1519827,4.33358893 20.9716445,5.23623511 C15.6322708,6.75186122 10.9536418,9.34705379 7.27767558,13.4896204 C4.25007377,16.9013055 2.61100957,20.8836399 2.31666519,25.3839817 C2.05236731,29.4272342 3.94780045,32.4157488 7.19282205,34.7174762 C10.1663124,36.826545 13.5452912,38.060781 17.0847963,38.8514953 C19.4944975,39.3897183 21.956641,39.703806 24.3952758,40.1177506 C24.5093412,40.1370165 24.6249368,40.1490916 24.7385849,40.1702569 C25.1553409,40.2481344 25.429237,40.4652145 25.3777684,40.9084649 C25.3260217,41.3536148 25.0073341,41.5255151 24.5847357,41.4724661 C23.1608656,41.2941891 21.7314313,41.1430471 20.3189678,40.8991033 C16.0116078,40.1550613 11.8262422,39.0309934 8.02063084,36.8426903 C5.22547206,35.2353479 2.88226266,33.1855691 1.70154664,30.1422418 C1.32081858,29.1610397 1.15931867,28.0988397 0.897524658,27.0735432 L0.897524658,25.1740924 Z" id="Fill-1" fill="#32444B" mask="url(#mask-3)"></path>
                        </g>
                        <rect id="Rectangle-Copy-21" fill="#ECECEC" x="38.693016" y="35.77673" width="265" height="8" rx="2"></rect>
                        <rect id="Rectangle-Copy-22" fill="#ECECEC" x="39.0379081" y="55.0090219" width="265" height="8" rx="2"></rect>
                        <rect id="Rectangle-Copy-23" fill="#ECECEC" x="38.3979925" y="74.4149619" width="265" height="8" rx="2"></rect>
                        <rect id="Rectangle-Copy-24" fill="#ECECEC" x="38.7428846" y="93.6472537" width="265" height="8" rx="2"></rect>
                        <rect id="Rectangle-Copy-25" fill="#ECECEC" x="39.0877767" y="112.879546" width="265" height="8" rx="2"></rect>
                        <rect id="Rectangle-Copy-21" fill="#ECECEC" x="38.447861" y="132.285486" width="265" height="8" rx="2"></rect>
                        <rect id="Rectangle-Copy-22" fill="#ECECEC" x="38.9664013" y="152.502585" width="265" height="8" rx="2"></rect>
                        <rect id="Rectangle-Copy-23" fill="#ECECEC" x="39.3112935" y="171.734877" width="265" height="8" rx="2"></rect>
                        <rect id="Rectangle-Copy-24" fill="#ECECEC" x="38.845026" y="192.125625" width="265" height="8" rx="2"></rect>
                        <rect id="Rectangle-Copy-25" fill="#ECECEC" x="39.1899181" y="211.357917" width="265" height="8" rx="2"></rect>
                        <rect id="Rectangle-Copy-21" fill="#ECECEC" x="39.5348102" y="230.590208" width="265" height="8" rx="2"></rect>
                        <rect id="Rectangle-Copy-22" fill="#ECECEC" x="38.8948946" y="249.996149" width="265" height="8" rx="2"></rect>
                        <rect id="Rectangle-Copy-23" fill="#ECECEC" x="39.2397867" y="269.22844" width="265" height="8" rx="2"></rect>
                        <rect id="Rectangle-Copy-24" fill="#ECECEC" x="38.5998711" y="288.63438" width="265" height="8" rx="2"></rect>
                        <rect id="Rectangle-Copy-25" fill="#ECECEC" x="39.1184114" y="308.85148" width="265" height="8" rx="2"></rect>
                    </g>
                </g>
            </g>
        </g>
    </g>
</svg>